<svg width="56" height="56" viewBox="0 0 56 56" fill="none" xmlns="http://www.w3.org/2000/svg">
<rect width="56" height="56" rx="16" fill="url(#paint0_linear_250_330)"/>
<mask id="mask0_250_330" style="mask-type:alpha" maskUnits="userSpaceOnUse" x="12" y="12" width="32" height="32">
<path d="M34.6035 43.8243C34.8571 43.924 35.1284 43.97 35.4005 43.9595C35.6725 43.9489 35.9395 43.8821 36.1848 43.7631L42.7474 40.5805C43.0854 40.4165 43.3706 40.1596 43.5701 39.8395C43.7697 39.5193 43.8756 39.1489 43.8755 38.7708V17.1902C43.8756 16.8122 43.7697 16.4418 43.5701 16.1217C43.3706 15.8015 43.0854 15.5447 42.7474 15.3807L36.1849 12.198C35.8141 12.0181 35.3969 11.9589 34.9913 12.0285C34.5856 12.0981 34.2114 12.2931 33.9205 12.5865L21.3571 24.1386L15.8846 19.9519C15.6378 19.7631 15.3331 19.6673 15.0235 19.6811C14.7139 19.695 14.4189 19.8177 14.1896 20.0279L12.4345 21.6371C11.8558 22.1676 11.8551 23.0853 12.433 23.6167L17.1789 27.9805L12.433 32.3442C11.8551 32.8758 11.8558 33.7933 12.4345 34.324L14.1896 35.933C14.4189 36.1432 14.7139 36.2659 15.0235 36.2799C15.3331 36.2937 15.6378 36.198 15.8846 36.0091L21.3571 31.8223L33.9205 43.3744C34.1148 43.5705 34.3473 43.7237 34.6035 43.8243ZM35.9115 20.6874L26.3788 27.9805L35.9115 35.2735V20.6874Z" fill="white"/>
</mask>
<g mask="url(#mask0_250_330)">
<path d="M42.7669 15.3856L36.1991 12.1984C35.8282 12.0184 35.4109 11.9591 35.0051 12.0286C34.5992 12.0981 34.2249 12.2931 33.9338 12.5865L12.4332 32.3442C11.855 32.8757 11.8557 33.7933 12.4347 34.3239L14.191 35.933C14.4204 36.1433 14.7156 36.266 15.0254 36.2799C15.3352 36.2938 15.6401 36.198 15.8871 36.0091L41.7786 16.2124C42.6473 15.5484 43.8949 16.1727 43.8949 17.2716V17.1947C43.8949 16.8167 43.789 16.4464 43.5895 16.1264C43.3899 15.8063 43.1048 15.5496 42.7669 15.3856Z" fill="#0065A9"/>
<path d="M42.7669 40.5752L36.1991 43.7624C35.8282 43.9423 35.4109 44.0017 35.0051 43.9321C34.5993 43.8626 34.2249 43.6677 33.9338 43.3744L12.4332 23.6166C11.855 23.0852 11.8557 22.1676 12.4347 21.637L14.191 20.0278C14.4204 19.8176 14.7157 19.6949 15.0254 19.681C15.3352 19.6672 15.6401 19.763 15.8871 19.9519L41.7786 39.7484C42.6473 40.4125 43.8949 39.7881 43.8949 38.6891V38.7661C43.8949 39.1441 43.789 39.5144 43.5894 39.8344C43.3899 40.1545 43.1048 40.4113 42.7669 40.5752Z" fill="#007ACC"/>
<path d="M36.1785 43.7649C35.8075 43.9448 35.3902 44.004 34.9843 43.9344C34.5784 43.8648 34.204 43.6699 33.9129 43.3765C34.648 44.1173 35.9051 43.5925 35.9051 42.5446V13.4202C35.9051 12.3723 34.648 11.8475 33.9129 12.5884C34.204 12.295 34.5784 12.1 34.9843 12.0304C35.3902 11.9608 35.8075 12.0201 36.1785 12.1999L42.7451 15.3827C43.0832 15.5465 43.3686 15.8033 43.5683 16.1234C43.7679 16.4436 43.8739 16.814 43.8739 17.1922V38.7729C43.8739 39.5445 43.4351 40.248 42.7451 40.5824L36.1785 43.765V43.7649Z" fill="#1F9CF0"/>
<path d="M34.6035 43.8243C34.8572 43.9239 35.1284 43.9699 35.4005 43.9594C35.6725 43.9489 35.9395 43.882 36.1848 43.763L42.7473 40.5803C43.0853 40.4163 43.3705 40.1595 43.5701 39.8394C43.7697 39.5193 43.8756 39.1489 43.8755 38.7708V17.1902C43.8756 16.8121 43.7697 16.4417 43.5701 16.1216C43.3706 15.8015 43.0854 15.5447 42.7474 15.3807L36.1846 12.1978C35.8138 12.018 35.3967 11.9588 34.9911 12.0284C34.5854 12.098 34.2113 12.293 33.9204 12.5863L21.3571 24.1386L15.8846 19.9519C15.6378 19.763 15.3331 19.6672 15.0235 19.6811C14.7139 19.695 14.4189 19.8177 14.1896 20.0279L12.4345 21.6371C11.8558 22.1676 11.8551 23.0852 12.433 23.6166L17.1789 27.9805L12.433 32.3442C11.8551 32.8757 11.8558 33.7933 12.4345 34.3239L14.1896 35.933C14.4189 36.1432 14.7139 36.2659 15.0235 36.2798C15.3331 36.2937 15.6378 36.1979 15.8846 36.0091L21.3571 31.8223L33.9204 43.3744C34.1147 43.5705 34.3473 43.7237 34.6035 43.8243ZM35.9115 20.6873L26.3788 27.9805L35.9115 35.2735V20.6874V20.6873Z" fill="url(#paint1_linear_250_330)" fill-opacity="0.25"/>
</g>
<defs>
<linearGradient id="paint0_linear_250_330" x1="0" y1="28" x2="56" y2="28" gradientUnits="userSpaceOnUse">
<stop stop-color="#A1C4FD"/>
<stop offset="1" stop-color="#C2E9FB"/>
</linearGradient>
<linearGradient id="paint1_linear_250_330" x1="27.9378" y1="12" x2="27.9378" y2="43.9609" gradientUnits="userSpaceOnUse">
<stop stop-color="white"/>
<stop offset="1" stop-color="white" stop-opacity="0"/>
</linearGradient>
</defs>
</svg>
