<svg width="56" height="56" viewBox="0 0 56 56" fill="none" xmlns="http://www.w3.org/2000/svg">
<rect width="56" height="56" rx="16" fill="url(#paint0_linear_250_331)"/>
<path d="M30.0496 24.6901C30.3324 24.569 30.5778 24.5371 30.5009 24.8633C30.4334 25.1489 30.1814 26.0201 29.9309 26.7663C29.7731 27.2356 29.8488 27.4556 28.9673 27.2502C27.6818 26.9507 27.0423 26.8917 26.3074 26.6881C26.128 26.591 26.194 26.319 26.3659 26.2661C27.2874 25.9823 29.3854 24.975 30.0496 24.6901V24.6901ZM27.8303 43.9686C31.0087 43.8791 34.2506 43.4796 37.4274 42.8314C39.3065 42.3087 40.8909 41.2112 41.9158 39.6432C43.4106 37.2611 44.0113 34.6216 43.9998 31.9574C43.9903 29.7498 43.5605 27.5251 42.8713 25.416C42.1879 23.3251 41.2264 21.4985 39.1764 20.453C35.7598 18.7106 31.9381 18.795 28.3505 18.9693C26.3006 19.1435 24.0799 19.3177 22.2007 20.5374C19.2966 22.6282 18.9691 26.476 19.3107 29.6123C19.4816 31.7031 19.8596 34.0031 21.8019 35.1152C26.2152 37.6415 32.1089 37.598 35.7674 34.2439C36.2111 33.8373 36.7703 33.5459 37.1485 33.0679C37.4516 32.6842 35.8672 31.6885 35.3548 31.1658C34.8423 30.6431 34.1589 30.4688 33.4756 30.1204C31.2548 29.2492 29.1336 30.1059 26.7419 29.5832C25.1337 29.2551 23.7239 28.1601 22.6344 27.0137C22.5637 26.9394 22.6056 26.6341 22.6664 26.5789C23.5662 25.7604 24.2303 24.9253 25.5105 24.1092C26.1938 23.7608 27.0907 23.1074 27.774 22.9332C32.3865 21.1908 38.9547 23.3443 39.9671 27.681C40.3131 29.1636 40.4971 30.8205 40.4796 32.4725C40.4595 34.3879 40.1345 36.2897 38.9421 37.7866C37.0631 39.8775 33.9878 40.0479 31.4256 40.2259C27.347 40.509 23.6314 40.7486 19.6809 39.4418C18.5909 39.0813 17.8018 38.244 17.2893 37.1987C16.7962 36.1927 16.3996 35.0424 16.1789 33.9317C15.1967 28.9879 15.3247 24.5666 16.8622 20.4068C17.6197 18.357 21.0262 17.4012 23.4179 16.8785C28.7135 15.6589 39.2089 16.2143 39.2089 16.2143C39.2089 16.2143 39.0063 13.1324 38.9208 12C33.7318 12.8058 23.2471 13.0018 17.2466 15.4847C15.8941 16.0443 14.3424 17.4012 13.6591 18.7951C12.4633 21.7571 11.9726 25.1185 12.0012 28.2194C12.0462 33.1009 12.8472 39.7745 17.3069 42.2173C19.6201 43.4843 22.2502 43.8805 24.9265 43.9686H27.8304H27.8303ZM28.8286 34.7694C28.8961 34.4838 29.1483 33.6127 29.3989 32.8664C29.5565 32.3969 29.4806 32.1771 30.3621 32.3823C31.6478 32.6819 32.2873 32.7407 33.0221 32.9446C33.2015 33.0417 33.1356 33.3134 32.9638 33.3666C32.0421 33.6503 29.9443 34.6578 29.2798 34.9426C28.9973 35.0636 28.7516 35.0956 28.8286 34.7694Z" fill="#303644"/>
<defs>
<linearGradient id="paint0_linear_250_331" x1="0" y1="28" x2="56" y2="28" gradientUnits="userSpaceOnUse">
<stop stop-color="#FF758C"/>
<stop offset="1" stop-color="#FF7EB3"/>
</linearGradient>
</defs>
</svg>
