<svg width="56" height="56" viewBox="0 0 56 56" fill="none" xmlns="http://www.w3.org/2000/svg">
<rect width="56" height="56" rx="16" fill="url(#paint0_linear_250_329)"/>
<path d="M33.3333 33.3333C36.2789 33.3333 38.6667 30.9455 38.6667 28C38.6667 25.0545 36.2789 22.6667 33.3333 22.6667C30.3878 22.6667 28 25.0545 28 28C28 30.9455 30.3878 33.3333 33.3333 33.3333Z" fill="#19BCFE"/>
<path fill-rule="evenodd" clip-rule="evenodd" d="M22.6666 44C24.0811 44 25.4377 43.4381 26.4379 42.4379C27.4381 41.4377 28 40.0812 28 38.6667V33.3333H22.6666C21.2522 33.3333 19.8956 33.8952 18.8954 34.8954C17.8952 35.8956 17.3333 37.2522 17.3333 38.6667C17.3333 40.0812 17.8952 41.4377 18.8954 42.4379C19.8956 43.4381 21.2522 44 22.6666 44Z" fill="#09CF83"/>
<path fill-rule="evenodd" clip-rule="evenodd" d="M22.6666 33.3333H28V22.6667H22.6666C21.2522 22.6667 19.8956 23.2286 18.8954 24.2288C17.8952 25.2289 17.3333 26.5855 17.3333 28C17.3333 29.4145 17.8952 30.771 18.8954 31.7712C19.8956 32.7714 21.2522 33.3333 22.6666 33.3333Z" fill="#A259FF"/>
<path fill-rule="evenodd" clip-rule="evenodd" d="M22.6666 22.6667H28V12H22.6666C21.2522 12 19.8956 12.5619 18.8954 13.5621C17.8952 14.5623 17.3333 15.9188 17.3333 17.3333C17.3333 18.7478 17.8952 20.1044 18.8954 21.1046C19.8956 22.1048 21.2522 22.6667 22.6666 22.6667Z" fill="#F24E1E"/>
<path fill-rule="evenodd" clip-rule="evenodd" d="M33.3333 22.6667H28V12H33.3333C34.7478 12 36.1044 12.5619 37.1046 13.5621C38.1048 14.5623 38.6667 15.9188 38.6667 17.3333C38.6667 18.7478 38.1048 20.1044 37.1046 21.1046C36.1044 22.1048 34.7478 22.6667 33.3333 22.6667Z" fill="#FF7262"/>
<defs>
<linearGradient id="paint0_linear_250_329" x1="0" y1="28" x2="56" y2="28" gradientUnits="userSpaceOnUse">
<stop stop-color="#CFD9DF"/>
<stop offset="1" stop-color="#E2EBF0"/>
</linearGradient>
</defs>
</svg>
