<svg width="117" height="32" viewBox="0 0 117 32" fill="none" xmlns="http://www.w3.org/2000/svg">
<g clip-path="url(#clip0_137_22)">
<path d="M9.65493 7.94623L16.6683 14.9647C17.8886 16.0672 18.6664 17.6672 18.6664 19.4555C18.6664 21.0958 18.0093 22.5748 16.9633 23.6504C15.9173 24.7261 14.5495 25.3042 13.1549 25.4252H12.0419C10.7277 25.2908 9.44038 24.7395 8.42123 23.7311C7.09365 22.4269 6.4902 20.6521 6.6243 18.9311C6.71817 17.8151 7.10706 16.7126 7.81778 15.7714C9.199 13.8353 9.17218 11.442 7.49594 9.57312L6.11473 8.18824L3.67413 10.6219C-1.16683 15.5832 -1.08637 23.5294 3.86187 28.3832C6.95955 31.4219 11.4653 32.5244 15.4212 31.7042C20.9863 30.4269 25.1567 25.4387 25.1567 19.4555C25.1567 16.0269 23.7755 12.9076 21.5495 10.6487L10.9691 0.0403442L9.69516 1.31766C7.77755 3.17312 7.89824 6.21177 9.65493 7.94623Z" fill="#FF6768"/>
<path d="M99.1928 31.9732H104.396C105.267 31.9732 106.139 31.8791 106.984 31.7043C112.549 30.427 116.72 25.4388 116.72 19.4556C116.72 16.027 115.338 12.9077 113.112 10.6489L102.532 0.0404592L101.258 1.31777C99.3403 3.18668 99.4744 6.22534 101.218 7.95979L108.231 14.9783C109.451 16.0808 110.229 17.6808 110.229 19.469C110.229 21.1094 109.572 22.5884 108.526 23.664C107.48 24.7396 106.112 25.3178 104.718 25.4388H104.329C103.538 25.4522 102.961 25.8556 102.612 26.5547C101.794 28.4102 100.359 29.9699 98.8978 31.0858C98.5223 31.3548 98.7235 31.9732 99.1928 31.9732Z" fill="#FF6768"/>
<path d="M67.2639 7.94624C67.5187 7.32775 67.6528 6.64203 67.6528 5.94287C67.6528 2.97145 65.239 0.551276 62.2755 0.551276C59.3119 0.551276 56.8981 2.97145 56.8981 5.94287C56.8981 6.65548 57.0322 7.32775 57.287 7.94624C58.7755 7.30086 60.3981 6.91094 62.0877 6.89749C63.9383 6.8706 65.6816 7.24708 67.2639 7.94624Z" fill="#FF6768"/>
<path d="M100.36 12.7329C98.1469 9.34466 94.191 6.9245 89.8462 6.88416C82.9267 6.81693 77.2677 12.3699 77.1872 19.3077V22.7631H79.1317C81.6393 22.6287 83.3558 20.9615 83.7313 18.6085C83.8922 17.4388 84.3883 16.3766 85.1125 15.5295C86.2389 14.2119 87.9017 13.3783 89.7657 13.4052C91.2006 13.4186 92.5013 13.9295 93.5205 14.7766L94.3117 15.5564C95.2101 16.6186 95.7733 18.0035 95.7465 19.5094C95.7197 21.0287 95.1431 22.5346 93.9898 23.6909C92.7293 24.9548 91.0531 25.5329 89.4171 25.4522L72.467 25.4388C72.4402 25.4388 72.4133 25.4388 72.3999 25.4388H68.8731C68.8195 25.4388 68.7658 25.4388 68.7256 25.4388H62.5034C60.854 25.5195 59.1778 24.9413 57.9307 23.6774C56.7774 22.5211 56.2008 21.0153 56.174 19.4959C56.1606 17.99 56.7238 16.6186 57.6088 15.543L58.4 14.7631C59.4192 13.9161 60.7333 13.4052 62.1548 13.3917C64.0188 13.3783 65.695 14.1984 66.808 15.5161C67.5321 16.3766 68.0417 17.4253 68.1892 18.5951C68.5781 20.948 70.2812 22.6153 72.7888 22.7497H74.7332V19.2942C74.6796 14.2119 71.6087 9.85559 67.2505 7.9329C66.4593 9.90937 64.5283 11.3211 62.2621 11.3211C59.9958 11.3211 58.0648 9.90937 57.2736 7.9329C54.9269 8.95475 52.9154 10.6623 51.561 12.7329C50.2602 14.8169 49.6165 17.1833 49.6568 19.5632V19.5228C49.6702 19.98 49.0936 20.1816 48.812 19.8858L40.4978 11.5497C40.243 11.2405 39.9748 10.9312 39.6932 10.6489L29.1128 0.0404592L27.8389 1.31777C25.9213 3.18668 26.0554 6.22534 27.7987 7.95979L34.812 14.9783C36.0323 16.0808 36.8101 17.6808 36.8101 19.469C36.8101 21.1094 36.153 22.5884 35.1071 23.664C34.0611 24.7396 32.6933 25.3178 31.2987 25.4388H27.2757C26.4845 25.4522 25.9079 25.8556 25.5592 26.5547C24.7412 28.4102 23.3064 29.9699 21.8447 31.0858C21.4826 31.3682 21.6704 31.9732 22.1397 31.9732H30.9768C31.8485 31.9732 32.7201 31.8791 33.5649 31.7043C37.9634 30.6959 41.4768 27.3749 42.7641 23.0858L47.8464 28.1816C50.0591 30.4674 53.4115 31.9463 56.9518 31.9732H89.8194C92.9975 31.9463 96.1622 30.7228 98.576 28.2892C102.814 24.0674 103.404 17.5867 100.36 12.7329Z" fill="#FF6768"/>
</g>
<defs>
<clipPath id="clip0_137_22">
<rect width="116.8" height="32" fill="white"/>
</clipPath>
</defs>
</svg>
